<mxfile host="app.diagrams.net" modified="2022-06-18T15:06:52.862Z" agent="5.0 (Windows NT 10.0; Win64; x64) AppleWebKit/537.36 (KHTML, like Gecko) Chrome/102.0.5005.124 Safari/537.36 Edg/102.0.1245.44" etag="Iou608aacQFnfeQhyVzE" version="19.0.0" type="github">
  <diagram id="R_80vvvkc3iU0kmPE42c" name="Page-1">
    <mxGraphModel dx="1038" dy="547" grid="1" gridSize="10" guides="1" tooltips="1" connect="1" arrows="1" fold="1" page="1" pageScale="1" pageWidth="1000" pageHeight="1000" math="0" shadow="0">
      <root>
        <mxCell id="0" />
        <mxCell id="1" parent="0" />
        <mxCell id="Pf0RHAEw8RVajDY7MxNQ-4" style="rounded=0;orthogonalLoop=1;jettySize=auto;html=1;entryX=1;entryY=0;entryDx=0;entryDy=0;" edge="1" parent="1" source="Pf0RHAEw8RVajDY7MxNQ-1" target="Pf0RHAEw8RVajDY7MxNQ-2">
          <mxGeometry relative="1" as="geometry" />
        </mxCell>
        <mxCell id="Pf0RHAEw8RVajDY7MxNQ-5" style="edgeStyle=none;rounded=0;orthogonalLoop=1;jettySize=auto;html=1;" edge="1" parent="1" source="Pf0RHAEw8RVajDY7MxNQ-1" target="Pf0RHAEw8RVajDY7MxNQ-3">
          <mxGeometry relative="1" as="geometry" />
        </mxCell>
        <mxCell id="Pf0RHAEw8RVajDY7MxNQ-1" value="5" style="ellipse;whiteSpace=wrap;html=1;aspect=fixed;fillColor=#dae8fc;strokeColor=#6c8ebf;" vertex="1" parent="1">
          <mxGeometry x="240" y="120" width="40" height="40" as="geometry" />
        </mxCell>
        <mxCell id="Pf0RHAEw8RVajDY7MxNQ-9" style="edgeStyle=none;rounded=0;orthogonalLoop=1;jettySize=auto;html=1;" edge="1" parent="1" source="Pf0RHAEw8RVajDY7MxNQ-2" target="Pf0RHAEw8RVajDY7MxNQ-6">
          <mxGeometry relative="1" as="geometry" />
        </mxCell>
        <mxCell id="Pf0RHAEw8RVajDY7MxNQ-10" style="edgeStyle=none;rounded=0;orthogonalLoop=1;jettySize=auto;html=1;entryX=0;entryY=0;entryDx=0;entryDy=0;" edge="1" parent="1" source="Pf0RHAEw8RVajDY7MxNQ-2" target="Pf0RHAEw8RVajDY7MxNQ-7">
          <mxGeometry relative="1" as="geometry" />
        </mxCell>
        <mxCell id="Pf0RHAEw8RVajDY7MxNQ-2" value="3" style="ellipse;whiteSpace=wrap;html=1;aspect=fixed;fillColor=#dae8fc;strokeColor=#6c8ebf;" vertex="1" parent="1">
          <mxGeometry x="200" y="180" width="40" height="40" as="geometry" />
        </mxCell>
        <mxCell id="Pf0RHAEw8RVajDY7MxNQ-11" style="edgeStyle=none;rounded=0;orthogonalLoop=1;jettySize=auto;html=1;" edge="1" parent="1" source="Pf0RHAEw8RVajDY7MxNQ-3" target="Pf0RHAEw8RVajDY7MxNQ-8">
          <mxGeometry relative="1" as="geometry" />
        </mxCell>
        <mxCell id="Pf0RHAEw8RVajDY7MxNQ-3" value="7" style="ellipse;whiteSpace=wrap;html=1;aspect=fixed;fillColor=#dae8fc;strokeColor=#6c8ebf;" vertex="1" parent="1">
          <mxGeometry x="280" y="180" width="40" height="40" as="geometry" />
        </mxCell>
        <mxCell id="Pf0RHAEw8RVajDY7MxNQ-6" value="1" style="ellipse;whiteSpace=wrap;html=1;aspect=fixed;fillColor=#dae8fc;strokeColor=#6c8ebf;" vertex="1" parent="1">
          <mxGeometry x="160" y="240" width="40" height="40" as="geometry" />
        </mxCell>
        <mxCell id="Pf0RHAEw8RVajDY7MxNQ-7" value="4" style="ellipse;whiteSpace=wrap;html=1;aspect=fixed;fillColor=#dae8fc;strokeColor=#6c8ebf;" vertex="1" parent="1">
          <mxGeometry x="240" y="240" width="40" height="40" as="geometry" />
        </mxCell>
        <mxCell id="Pf0RHAEw8RVajDY7MxNQ-8" value="9" style="ellipse;whiteSpace=wrap;html=1;aspect=fixed;fillColor=#dae8fc;strokeColor=#6c8ebf;" vertex="1" parent="1">
          <mxGeometry x="320" y="240" width="40" height="40" as="geometry" />
        </mxCell>
        <mxCell id="Pf0RHAEw8RVajDY7MxNQ-12" style="rounded=0;orthogonalLoop=1;jettySize=auto;html=1;entryX=1;entryY=0;entryDx=0;entryDy=0;" edge="1" parent="1" source="Pf0RHAEw8RVajDY7MxNQ-14" target="Pf0RHAEw8RVajDY7MxNQ-17">
          <mxGeometry relative="1" as="geometry" />
        </mxCell>
        <mxCell id="Pf0RHAEw8RVajDY7MxNQ-13" style="edgeStyle=none;rounded=0;orthogonalLoop=1;jettySize=auto;html=1;" edge="1" parent="1" source="Pf0RHAEw8RVajDY7MxNQ-14" target="Pf0RHAEw8RVajDY7MxNQ-19">
          <mxGeometry relative="1" as="geometry" />
        </mxCell>
        <mxCell id="Pf0RHAEw8RVajDY7MxNQ-14" value="3" style="ellipse;whiteSpace=wrap;html=1;aspect=fixed;fillColor=#dae8fc;strokeColor=#6c8ebf;" vertex="1" parent="1">
          <mxGeometry x="480" y="120" width="40" height="40" as="geometry" />
        </mxCell>
        <mxCell id="Pf0RHAEw8RVajDY7MxNQ-17" value="1" style="ellipse;whiteSpace=wrap;html=1;aspect=fixed;fillColor=#dae8fc;strokeColor=#6c8ebf;" vertex="1" parent="1">
          <mxGeometry x="440" y="180" width="40" height="40" as="geometry" />
        </mxCell>
        <mxCell id="Pf0RHAEw8RVajDY7MxNQ-18" style="edgeStyle=none;rounded=0;orthogonalLoop=1;jettySize=auto;html=1;" edge="1" parent="1" source="Pf0RHAEw8RVajDY7MxNQ-19" target="Pf0RHAEw8RVajDY7MxNQ-22">
          <mxGeometry relative="1" as="geometry" />
        </mxCell>
        <mxCell id="Pf0RHAEw8RVajDY7MxNQ-19" value="4" style="ellipse;whiteSpace=wrap;html=1;aspect=fixed;fillColor=#dae8fc;strokeColor=#6c8ebf;" vertex="1" parent="1">
          <mxGeometry x="520" y="180" width="40" height="40" as="geometry" />
        </mxCell>
        <mxCell id="Pf0RHAEw8RVajDY7MxNQ-24" style="edgeStyle=none;rounded=0;orthogonalLoop=1;jettySize=auto;html=1;" edge="1" parent="1" source="Pf0RHAEw8RVajDY7MxNQ-22" target="Pf0RHAEw8RVajDY7MxNQ-23">
          <mxGeometry relative="1" as="geometry" />
        </mxCell>
        <mxCell id="Pf0RHAEw8RVajDY7MxNQ-22" value="5" style="ellipse;whiteSpace=wrap;html=1;aspect=fixed;fillColor=#dae8fc;strokeColor=#6c8ebf;" vertex="1" parent="1">
          <mxGeometry x="560" y="240" width="40" height="40" as="geometry" />
        </mxCell>
        <mxCell id="Pf0RHAEw8RVajDY7MxNQ-28" style="edgeStyle=none;rounded=0;orthogonalLoop=1;jettySize=auto;html=1;fontSize=15;" edge="1" parent="1" source="Pf0RHAEw8RVajDY7MxNQ-23" target="Pf0RHAEw8RVajDY7MxNQ-27">
          <mxGeometry relative="1" as="geometry" />
        </mxCell>
        <mxCell id="Pf0RHAEw8RVajDY7MxNQ-23" value="7" style="ellipse;whiteSpace=wrap;html=1;aspect=fixed;fillColor=#dae8fc;strokeColor=#6c8ebf;" vertex="1" parent="1">
          <mxGeometry x="600" y="300" width="40" height="40" as="geometry" />
        </mxCell>
        <mxCell id="Pf0RHAEw8RVajDY7MxNQ-25" value="树A" style="text;html=1;align=center;verticalAlign=middle;resizable=0;points=[];autosize=1;strokeColor=none;fillColor=none;fontSize=15;" vertex="1" parent="1">
          <mxGeometry x="240" y="80" width="40" height="20" as="geometry" />
        </mxCell>
        <mxCell id="Pf0RHAEw8RVajDY7MxNQ-26" value="树B" style="text;html=1;align=center;verticalAlign=middle;resizable=0;points=[];autosize=1;strokeColor=none;fillColor=none;fontSize=15;" vertex="1" parent="1">
          <mxGeometry x="480" y="80" width="40" height="20" as="geometry" />
        </mxCell>
        <mxCell id="Pf0RHAEw8RVajDY7MxNQ-27" value="9" style="ellipse;whiteSpace=wrap;html=1;aspect=fixed;fillColor=#dae8fc;strokeColor=#6c8ebf;" vertex="1" parent="1">
          <mxGeometry x="640" y="360" width="40" height="40" as="geometry" />
        </mxCell>
      </root>
    </mxGraphModel>
  </diagram>
</mxfile>
